<?xml version="1.0" encoding="utf-8" standalone="no"?>
<!DOCTYPE svg PUBLIC "-//W3C//DTD SVG 1.1//EN" 
"http://www.w3.org/Graphics/SVG/1.1/DTD/svg11.dtd">
<svg width="1906px" height="992px" viewBox="0 0 1906 992"
xmlns="http://www.w3.org/2000/svg" version="1.1">
<rect x="0" y="0" width="1906" height="992" fill="none" stroke="rgb(192,192,192)" stroke-width="1"/>
<text x="1619" y="988" font-family="Times" font-size="12" xml:space="preserve"  fill="rgb(0,0,0)" textLength="79">AAB49192.1</text>
<text x="1659" y="882" font-family="Times" font-size="12" xml:space="preserve"  fill="rgb(0,0,0)" textLength="79">AAB49197.1</text>
<text x="1734" y="776" font-family="Times" font-size="12" xml:space="preserve"  fill="rgb(0,0,0)" textLength="79">AAB49199.1</text>
<text x="1600" y="822" font-family="Times" font-size="12" xml:space="preserve"  fill="rgb(0,0,0)" textLength="16">83</text>
<text x="1817" y="670" font-family="Times" font-size="12" xml:space="preserve"  fill="rgb(0,0,0)" textLength="79">AAB49190.1</text>
<text x="1426" y="916" font-family="Times" font-size="12" xml:space="preserve"  fill="rgb(0,0,0)" textLength="16">94</text>
<text x="1489" y="564" font-family="Times" font-size="12" xml:space="preserve"  fill="rgb(0,0,0)" textLength="79">AAB49191.1</text>
<text x="1525" y="459" font-family="Times" font-size="12" xml:space="preserve"  fill="rgb(0,0,0)" textLength="79">AAB49193.1</text>
<text x="1525" y="353" font-family="Times" font-size="12" xml:space="preserve"  fill="rgb(0,0,0)" textLength="79">AAB49196.1</text>
<text x="1525" y="247" font-family="Times" font-size="12" xml:space="preserve"  fill="rgb(0,0,0)" textLength="79">AAB49198.1</text>
<text x="1525" y="141" font-family="Times" font-size="12" xml:space="preserve"  fill="rgb(0,0,0)" textLength="79">AAB49194.1</text>
<text x="1405" y="226" font-family="Times" font-size="12" xml:space="preserve"  fill="rgb(0,0,0)" textLength="16">86</text>
<text x="1289" y="797" font-family="Times" font-size="12" xml:space="preserve"  fill="rgb(0,0,0)" textLength="16">76</text>
<text x="1289" y="391" font-family="Times" font-size="12" xml:space="preserve"  fill="rgb(0,0,0)" textLength="16">68</text>
<text x="1818" y="35" font-family="Times" font-size="12" xml:space="preserve"  fill="rgb(0,0,0)" textLength="79">ACB15385.1</text>
<line x1="1657" y1="877" x2="1657" y2="877" style="stroke:rgb(0,0,0);stroke-width:1;stroke-linecap:butt" />
<line x1="1657" y1="771" x2="1731" y2="771" style="stroke:rgb(0,0,0);stroke-width:1;stroke-linecap:butt" />
<line x1="1657" y1="877" x2="1657" y2="771" style="stroke:rgb(0,0,0);stroke-width:1;stroke-linecap:butt" />
<line x1="1600" y1="983" x2="1617" y2="983" style="stroke:rgb(0,0,0);stroke-width:1;stroke-linecap:butt" />
<line x1="1600" y1="824" x2="1657" y2="824" style="stroke:rgb(0,0,0);stroke-width:1;stroke-linecap:butt" />
<line x1="1600" y1="983" x2="1600" y2="824" style="stroke:rgb(0,0,0);stroke-width:1;stroke-linecap:butt" />
<line x1="1426" y1="904" x2="1600" y2="904" style="stroke:rgb(0,0,0);stroke-width:1;stroke-linecap:butt" />
<line x1="1426" y1="665" x2="1815" y2="665" style="stroke:rgb(0,0,0);stroke-width:1;stroke-linecap:butt" />
<line x1="1426" y1="904" x2="1426" y2="665" style="stroke:rgb(0,0,0);stroke-width:1;stroke-linecap:butt" />
<line x1="1522" y1="454" x2="1522" y2="454" style="stroke:rgb(0,0,0);stroke-width:1;stroke-linecap:butt" />
<line x1="1522" y1="348" x2="1522" y2="348" style="stroke:rgb(0,0,0);stroke-width:1;stroke-linecap:butt" />
<line x1="1522" y1="454" x2="1522" y2="348" style="stroke:rgb(0,0,0);stroke-width:1;stroke-linecap:butt" />
<line x1="1522" y1="401" x2="1522" y2="401" style="stroke:rgb(0,0,0);stroke-width:1;stroke-linecap:butt" />
<line x1="1522" y1="242" x2="1522" y2="242" style="stroke:rgb(0,0,0);stroke-width:1;stroke-linecap:butt" />
<line x1="1522" y1="401" x2="1522" y2="242" style="stroke:rgb(0,0,0);stroke-width:1;stroke-linecap:butt" />
<line x1="1522" y1="321" x2="1522" y2="321" style="stroke:rgb(0,0,0);stroke-width:1;stroke-linecap:butt" />
<line x1="1522" y1="136" x2="1522" y2="136" style="stroke:rgb(0,0,0);stroke-width:1;stroke-linecap:butt" />
<line x1="1522" y1="321" x2="1522" y2="136" style="stroke:rgb(0,0,0);stroke-width:1;stroke-linecap:butt" />
<line x1="1405" y1="559" x2="1487" y2="559" style="stroke:rgb(0,0,0);stroke-width:1;stroke-linecap:butt" />
<line x1="1405" y1="229" x2="1522" y2="229" style="stroke:rgb(0,0,0);stroke-width:1;stroke-linecap:butt" />
<line x1="1405" y1="559" x2="1405" y2="229" style="stroke:rgb(0,0,0);stroke-width:1;stroke-linecap:butt" />
<line x1="1289" y1="784" x2="1426" y2="784" style="stroke:rgb(0,0,0);stroke-width:1;stroke-linecap:butt" />
<line x1="1289" y1="394" x2="1405" y2="394" style="stroke:rgb(0,0,0);stroke-width:1;stroke-linecap:butt" />
<line x1="1289" y1="784" x2="1289" y2="394" style="stroke:rgb(0,0,0);stroke-width:1;stroke-linecap:butt" />
<line x1="12" y1="589" x2="1289" y2="589" style="stroke:rgb(0,0,0);stroke-width:1;stroke-linecap:butt" />
<line x1="12" y1="30" x2="1815" y2="30" style="stroke:rgb(0,0,0);stroke-width:1;stroke-linecap:butt" />
<line x1="12" y1="589" x2="12" y2="30" style="stroke:rgb(0,0,0);stroke-width:1;stroke-linecap:butt" />
<line x1="1676" y1="13" x2="1811" y2="13" style="stroke:rgb(0,0,0);stroke-width:1;stroke-linecap:butt" />
<line x1="1676" y1="17" x2="1676" y2="9" style="stroke:rgb(0,0,0);stroke-width:1;stroke-linecap:butt" />
<line x1="1811" y1="17" x2="1811" y2="9" style="stroke:rgb(0,0,0);stroke-width:1;stroke-linecap:butt" />
<text x="1729" y="11" font-family="Times" font-size="12" xml:space="preserve"  fill="rgb(0,0,0)" textLength="28">0.02</text>
</svg>
